<svg width="115" height="115" viewBox="0 0 115 115" fill="none" xmlns="http://www.w3.org/2000/svg">
<circle cx="57.5" cy="57.5" r="57.5" fill="white"/>
<path d="M40.3208 39.2264C40.3208 29.1602 48.481 21 58.5472 21C68.6134 21 76.7736 29.1602 76.7736 39.2264V50.8636H40.3208V39.2264Z" fill="#667EEA"/>
<path d="M47.5472 38.1461C47.5472 32.0709 52.472 27.1461 58.5472 27.1461C64.6223 27.1461 69.5472 32.0709 69.5472 38.1461V46.4622H47.5472V38.1461Z" fill="white"/>
<rect x="26" y="43.1212" width="65.0943" height="50.8788" rx="12" fill="#667EEA"/>
<ellipse cx="58.5472" cy="68.5606" rx="26.0377" ry="19.9091" fill="white"/>
<ellipse cx="68.9623" cy="59.7121" rx="5.20755" ry="4.42424" fill="#667EEA"/>
<path d="M49.7979 62.8964C50.5984 61.8494 52.1752 61.8494 52.9757 62.8964L64.1499 77.5126C65.1561 78.8286 64.2177 80.7273 62.5611 80.7273H40.2126C38.556 80.7273 37.6176 78.8286 38.6237 77.5126L49.7979 62.8964Z" fill="#667EEA"/>
<path d="M66.8982 68.3517C67.2976 67.8816 68.0232 67.8816 68.4225 68.3517L77.5356 79.0799C78.0874 79.7294 77.6258 80.7273 76.7735 80.7273H58.5473C57.695 80.7273 57.2334 79.7294 57.7851 79.0799L66.8982 68.3517Z" fill="#667EEA"/>
</svg>
